<?xml version="1.0" encoding="iso-8859-1"?>
<!-- Uploaded to: SVG Repo, www.svgrepo.com, Generator: SVG Repo Mixer Tools -->
<svg height="800px" width="800px" version="1.1" id="Layer_1" xmlns="http://www.w3.org/2000/svg" xmlns:xlink="http://www.w3.org/1999/xlink" 
	 viewBox="0 0 512.001 512.001" xml:space="preserve">
<path style="fill:#F74848;" d="M143.191,503.914h-24.107c-10.979,0-19.879-8.901-19.879-19.878V27.962
	c0-10.977,8.9-19.878,19.879-19.878h273.834c10.979,0,19.879,8.901,19.879,19.878v456.074c0,10.977-8.901,19.878-19.879,19.878
	H166.909"/>
<path style="fill:#53CAF9;" d="M374.589,90.671V58.756c0-7.145-5.793-12.937-12.937-12.937H150.347
	c-7.145,0-12.937,5.793-12.937,12.937V249.87c0,7.145,5.793,12.937,12.937,12.937h211.306c7.145,0,12.937-5.793,12.937-12.937
	V114.385"/>
<g>
	<path style="fill:#EFD760;" d="M196.133,98.743c0,1.71-1.386,3.095-3.096,3.095h-17.221c-1.71,0-3.096-1.385-3.096-3.095V81.521
		c0-1.71,1.386-3.096,3.096-3.096h17.221c1.71,0,3.096,1.386,3.096,3.096V98.743z"/>
	<path style="fill:#EFD760;" d="M196.133,145.013c0,1.71-1.386,3.096-3.096,3.096h-17.221c-1.71,0-3.096-1.386-3.096-3.096V127.79
		c0-1.71,1.386-3.096,3.096-3.096h17.221c1.71,0,3.096,1.386,3.096,3.096V145.013z"/>
	<path style="fill:#EFD760;" d="M196.133,191.282c0,1.71-1.386,3.096-3.096,3.096h-17.221c-1.71,0-3.096-1.386-3.096-3.096V174.06
		c0-1.71,1.386-3.096,3.096-3.096h17.221c1.71,0,3.096,1.386,3.096,3.096V191.282z"/>
</g>
<g style="opacity:0.2;">
	<path style="fill:#231F20;" d="M124.436,484.038V27.962c0-10.977,8.9-19.878,19.879-19.878h-25.232
		c-10.979,0-19.879,8.901-19.879,19.878v456.074c0,10.977,8.9,19.878,19.879,19.878h24.107h1.124
		C133.335,503.914,124.436,495.014,124.436,484.038z"/>
</g>
<g>
	<path style="fill:#547475;" d="M137.411,226.198v23.672c0,7.145,5.793,12.937,12.937,12.937h211.306
		c7.145,0,12.937-5.793,12.937-12.937v-23.672H137.411z"/>
	<circle style="fill:#547475;" cx="256.004" cy="383.541" r="17.969"/>
</g>
<path style="fill:#DBDDDD;" d="M255.999,477.337c-51.715,0-93.79-42.075-93.79-93.79c0-51.717,42.074-93.789,93.79-93.789
	c51.717,0,93.79,42.072,93.79,93.789C349.789,435.262,307.717,477.337,255.999,477.337z M255.999,322.101
	c-33.881,0-61.447,27.565-61.447,61.447s27.565,61.447,61.447,61.447s61.447-27.565,61.447-61.447
	C317.446,349.666,289.882,322.101,255.999,322.101z"/>
<g>
	<path style="fill:#231F20;" d="M392.917,0H119.083c-15.419,0-27.965,12.545-27.965,27.963v456.074
		c0,15.419,12.545,27.963,27.965,27.963h24.107c4.465,0,8.086-3.619,8.086-8.086c0-4.467-3.62-8.086-8.086-8.086h-24.107
		c-6.503,0-11.793-5.289-11.793-11.792V27.963c0-6.502,5.29-11.792,11.793-11.792h273.834c6.503,0,11.794,5.289,11.794,11.792
		v456.074c0,6.502-5.29,11.792-11.794,11.792H166.909c-4.465,0-8.086,3.619-8.086,8.086c0,4.467,3.62,8.086,8.086,8.086h226.008
		c15.42,0,27.966-12.545,27.966-27.963V27.963C420.883,12.545,408.337,0,392.917,0z"/>
	<path style="fill:#231F20;" d="M374.589,98.756c4.467,0,8.086-3.619,8.086-8.086V58.756c0-11.592-9.431-21.023-21.023-21.023
		H150.348c-11.592,0-21.023,9.431-21.023,21.023v167.442v23.672c0,11.592,9.431,21.023,21.023,21.023h211.305
		c11.592,0,21.023-9.431,21.023-21.023v-23.672V114.385c0-4.467-3.619-8.086-8.086-8.086c-4.465,0-8.086,3.619-8.086,8.086v103.728
		H145.496V58.756c0-2.675,2.177-4.851,4.851-4.851h211.305c2.676,0,4.851,2.177,4.851,4.851v31.915
		C366.504,95.136,370.124,98.756,374.589,98.756z M366.504,234.284v15.586c0,2.675-2.176,4.851-4.851,4.851H150.348
		c-2.675,0-4.851-2.177-4.851-4.851v-15.586H366.504z"/>
	<path style="fill:#231F20;" d="M255.999,485.423c56.175,0,101.875-45.701,101.875-101.875v-0.001l0,0c0,0,0,0,0-0.001
		c-0.001-56.173-45.701-101.872-101.875-101.872c-56.173,0-101.873,45.699-101.875,101.872c0,0,0,0,0,0.001l0,0v0.001
		C154.125,439.722,199.826,485.423,255.999,485.423z M170.689,391.631h16.264c3.711,31.889,29.073,57.252,60.962,60.964v16.264
		C207.099,465.02,174.526,432.447,170.689,391.631z M255.999,330.187c29.423,0,53.361,23.938,53.361,53.361
		c0,29.423-23.938,53.361-53.361,53.361s-53.361-23.938-53.361-53.361C202.638,354.125,226.576,330.187,255.999,330.187z
		 M264.085,468.858v-16.264c31.889-3.712,57.251-29.075,60.962-60.964h16.264C337.474,432.447,304.901,465.02,264.085,468.858z
		 M341.311,375.46h-16.264c-3.713-31.888-29.074-57.248-60.962-60.96v-16.264C304.899,302.074,337.471,334.646,341.311,375.46z
		 M247.914,298.236V314.5c-31.887,3.712-57.248,29.072-60.961,60.96h-16.264C174.529,334.646,207.101,302.074,247.914,298.236z"/>
	<path style="fill:#231F20;" d="M256.002,409.601c14.366,0,26.053-11.689,26.053-26.055c0-14.366-11.688-26.053-26.053-26.053
		c-14.367,0-26.054,11.688-26.054,26.053C229.947,397.912,241.635,409.601,256.002,409.601z M256.002,373.664
		c5.449,0,9.882,4.433,9.882,9.882c0,5.451-4.433,9.884-9.882,9.884c-5.45,0-9.883-4.433-9.883-9.884
		C246.119,378.097,250.553,373.664,256.002,373.664z"/>
	<path style="fill:#231F20;" d="M337.541,82.047H222.669c-4.465,0-8.086,3.619-8.086,8.086s3.62,8.086,8.086,8.086h114.872
		c4.467,0,8.086-3.619,8.086-8.086S342.007,82.047,337.541,82.047z"/>
	<path style="fill:#231F20;" d="M337.541,128.315H222.669c-4.465,0-8.086,3.619-8.086,8.086c0,4.467,3.62,8.086,8.086,8.086h114.872
		c4.467,0,8.086-3.619,8.086-8.086S342.007,128.315,337.541,128.315z"/>
	<path style="fill:#231F20;" d="M337.541,174.585H222.669c-4.465,0-8.086,3.619-8.086,8.086c0,4.467,3.62,8.086,8.086,8.086h114.872
		c4.467,0,8.086-3.619,8.086-8.086C345.626,178.204,342.007,174.585,337.541,174.585z"/>
	<path style="fill:#231F20;" d="M204.219,81.521c0-6.166-5.016-11.182-11.182-11.182h-17.221c-6.166,0-11.182,5.016-11.182,11.182
		v17.222c0,6.166,5.016,11.181,11.182,11.181h17.221c6.166,0,11.182-5.015,11.182-11.181V81.521z M188.047,93.753h-7.243V86.51
		h7.243V93.753z"/>
	<path style="fill:#231F20;" d="M204.219,127.79c0-6.166-5.016-11.182-11.182-11.182h-17.221c-6.166,0-11.182,5.016-11.182,11.182
		v17.222c0,6.166,5.016,11.182,11.182,11.182h17.221c6.166,0,11.182-5.016,11.182-11.182V127.79z M188.047,140.023h-7.243v-7.244
		h7.243V140.023z"/>
	<path style="fill:#231F20;" d="M193.036,162.878h-17.221c-6.166,0-11.182,5.016-11.182,11.182v17.223
		c0,6.166,5.016,11.182,11.182,11.182h17.221c6.166,0,11.182-5.016,11.182-11.182V174.06
		C204.219,167.894,199.202,162.878,193.036,162.878z M188.047,186.293h-7.243v-7.244h7.243V186.293z"/>
</g>
<g style="opacity:0.2;">
	<path style="fill:#231F20;" d="M162.642,249.87V58.756c0-7.145,5.793-12.937,12.937-12.937h-25.232
		c-7.145,0-12.937,5.793-12.937,12.937V249.87c0,7.145,5.793,12.937,12.937,12.937h25.232
		C168.435,262.807,162.642,257.014,162.642,249.87z"/>
</g>
</svg>